<svg width="39" height="38" fill="none" xmlns="http://www.w3.org/2000/svg"><path d="M19.016.4C29.3.4 37.632 8.676 37.632 18.88c0 10.203-8.332 18.48-18.616 18.48C8.732 37.36.4 29.083.4 18.88.4 8.676 8.732.4 19.016.4Z" stroke="#F8F8F8" stroke-opacity=".3" stroke-width=".8"/><path fill-rule="evenodd" clip-rule="evenodd" d="M22.016 14.83a7.406 7.406 0 0 0-1.244-.135c-.894 0-.952.386-.952 1.004v1.099h2.235l-.195 2.276h-2.04V26h-2.797v-6.925h-1.438v-2.276h1.438V15.39c0-1.93.913-3.01 3.205-3.01.796 0 1.38.116 2.137.27l-.35 2.18Z" fill="#F8F8F8" fill-opacity=".7"/></svg>