<svg width="39" height="39" fill="none" xmlns="http://www.w3.org/2000/svg"><path d="M19.698.73c10.284 0 18.616 8.276 18.616 18.479 0 10.204-8.332 18.48-18.616 18.48-10.284 0-18.615-8.277-18.615-18.48C1.083 9.006 9.414.729 19.698.729Z" stroke="#F8F8F8" stroke-opacity=".3" stroke-width=".8"/><path d="M20.013 13.427c1.997 0 2.234.008 3.023.044.73.033 1.125.154 1.39.255.348.135.598.296.86.556a2.3 2.3 0 0 1 .56.854c.102.262.223.655.257 1.38.036.783.043 1.018.043 3.001 0 1.983-.007 2.218-.043 3.002-.034.724-.155 1.117-.258 1.379a2.299 2.299 0 0 1-.56.854c-.261.26-.51.421-.86.556-.264.101-.66.222-1.39.256-.788.035-1.024.043-3.022.043-1.998 0-2.235-.008-3.024-.043-.729-.034-1.125-.155-1.389-.256a2.318 2.318 0 0 1-.86-.556 2.3 2.3 0 0 1-.56-.854c-.102-.262-.224-.655-.257-1.38-.036-.783-.044-1.018-.044-3.001 0-1.983.008-2.218.044-3.002.033-.724.155-1.117.257-1.379.136-.347.298-.594.56-.854.262-.26.511-.42.86-.556.264-.101.66-.222 1.39-.255.788-.036 1.025-.044 3.023-.044Zm0-1.338c-2.032 0-2.287.008-3.085.045-.796.036-1.34.161-1.816.345a3.67 3.67 0 0 0-1.325.857 3.636 3.636 0 0 0-.863 1.315c-.185.473-.312 1.013-.348 1.803-.036.793-.045 1.046-.045 3.063 0 2.017.009 2.27.045 3.063.036.79.163 1.33.348 1.803.191.488.447.902.863 1.316a3.67 3.67 0 0 0 1.325.856c.476.184 1.02.31 1.816.346.798.036 1.053.044 3.085.044s2.286-.008 3.084-.044c.797-.037 1.34-.162 1.816-.346a3.67 3.67 0 0 0 1.326-.857c.416-.413.671-.827.863-1.315.184-.473.311-1.013.347-1.803.037-.793.045-1.046.045-3.063 0-2.017-.008-2.27-.045-3.063-.036-.79-.163-1.33-.347-1.803a3.638 3.638 0 0 0-.863-1.315 3.67 3.67 0 0 0-1.326-.857c-.475-.184-1.02-.31-1.816-.345-.798-.037-1.052-.045-3.084-.045Z" fill="#fff" fill-opacity=".7"/><path d="M20.012 15.705c-2.121 0-3.841 1.708-3.841 3.814 0 2.107 1.72 3.815 3.841 3.815 2.122 0 3.842-1.708 3.842-3.815 0-2.106-1.72-3.814-3.841-3.814Zm0 6.29a2.485 2.485 0 0 1-2.493-2.476 2.485 2.485 0 0 1 2.494-2.476 2.485 2.485 0 0 1 2.493 2.476 2.485 2.485 0 0 1-2.494 2.476ZM24.906 15.551a.895.895 0 0 1-.897.891.895.895 0 0 1-.898-.89c0-.493.402-.892.898-.892.495 0 .897.399.897.891Z" fill="#fff" fill-opacity=".7"/></svg>