<svg width="39" height="38" fill="none" xmlns="http://www.w3.org/2000/svg"><path d="M19.38.4c10.284 0 18.616 8.276 18.616 18.48 0 10.203-8.332 18.48-18.616 18.48C9.096 37.36.765 29.083.765 18.88.765 8.676 9.096.4 19.38.4Z" stroke="#F8F8F8" stroke-opacity=".3" stroke-width=".8"/><path fill-rule="evenodd" clip-rule="evenodd" d="M16.438 13.174c0 .77-.591 1.394-1.516 1.394-.888 0-1.48-.624-1.46-1.394-.02-.808.572-1.414 1.478-1.414.907 0 1.48.606 1.498 1.414Zm-2.903 11.473V15.67h2.81v8.977h-2.81ZM18.591 18.534c0-1.12-.037-2.075-.074-2.864h2.441l.13 1.23h.055c.37-.57 1.294-1.431 2.792-1.431 1.849 0 3.236 1.211 3.236 3.854v5.325h-2.81v-4.976c0-1.157-.407-1.946-1.424-1.946-.777 0-1.239.533-1.423 1.046-.075.184-.111.44-.111.698v5.178h-2.81v-6.114h-.002Z" fill="#fff" fill-opacity=".7"/></svg>