<svg width="30" height="29" fill="none" xmlns="http://www.w3.org/2000/svg"><path d="M14.961.585c7.637 0 13.821 6.13 13.822 13.682 0 7.553-6.184 13.682-13.822 13.683-7.637 0-13.82-6.13-13.82-13.683S7.323.585 14.96.585Z" stroke="#F8F8F8" stroke-opacity=".3" stroke-width=".8"/><g opacity=".7" clip-path="url(#a)" fill-rule="evenodd" clip-rule="evenodd" fill="#FCFCFC"><path opacity=".89" d="M17.328 13.845c.662.474 1.566.77 2.53.77v-1.779c-.181 0-.362 0-.543-.06V14.2a4.164 4.164 0 0 1-2.53-.83v3.678c0 1.839-1.505 3.322-3.372 3.322-.722 0-1.325-.238-1.867-.594a3.437 3.437 0 0 0 2.41 1.009c1.866 0 3.372-1.483 3.372-3.322v-3.619Zm.662-1.84c-.361-.415-.602-.89-.662-1.482v-.238h-.482c.06.771.482 1.365 1.144 1.72Zm-5.3 6.466a1.624 1.624 0 0 1-.3-.949c0-.83.722-1.542 1.565-1.542.18 0 .301 0 .482.06V14.2h-.602v1.424c-.12-.06-.301-.06-.482-.06-.843 0-1.566.653-1.566 1.543 0 .593.362 1.068.904 1.364Z"/><path opacity=".78" d="M19.315 12.777v-.356a2.83 2.83 0 0 1-1.385-.356c.422.356.843.593 1.385.712Zm-2.53-2.492V9.87H14.92v7.237c0 .83-.723 1.542-1.566 1.542-.24 0-.482-.059-.723-.178a1.61 1.61 0 0 0 1.265.594c.843 0 1.566-.653 1.566-1.543v-7.237h1.325Zm-2.95 3.915v-.415c-.18 0-.301-.06-.482-.06-1.867 0-3.372 1.543-3.372 3.382 0 1.127.602 2.195 1.505 2.788a3.25 3.25 0 0 1-.963-2.313c0-1.899 1.445-3.382 3.312-3.382Z"/></g><defs><clipPath id="a"><path fill="#fff" transform="translate(9.98 9.87)" d="M0 0h9.877v10.974H0z"/></clipPath></defs></svg>