<svg width="39" height="38" fill="none" xmlns="http://www.w3.org/2000/svg"><path d="M19.984.4C30.268.4 38.6 8.676 38.6 18.88c0 10.203-8.332 18.48-18.616 18.48-10.284 0-18.615-8.277-18.615-18.48C1.369 8.676 9.7.4 19.984.4Z" stroke="#F8F8F8" stroke-opacity=".3" stroke-width=".8"/><path fill-rule="evenodd" clip-rule="evenodd" d="M27.339 14.473c.249.247.428.554.52.892.53 2.115.407 5.455.01 7.652a1.996 1.996 0 0 1-.52.892 2.017 2.017 0 0 1-.898.516c-1.244.337-6.249.337-6.249.337s-5.005 0-6.248-.337c-.34-.09-.65-.269-.898-.516a1.996 1.996 0 0 1-.52-.892c-.532-2.106-.387-5.448-.01-7.642.091-.338.27-.645.52-.892.248-.247.558-.425.898-.516 1.243-.337 6.248-.347 6.248-.347s5.005 0 6.249.337c.34.09.649.269.898.516ZM22.75 19.19 18.6 21.578v-4.775l4.152 2.388Z" fill="#fff" fill-opacity=".7"/></svg>